<svg width="376" height="48" viewBox="0 0 376 48" fill="none" xmlns="http://www.w3.org/2000/svg">
<g clip-path="url(#clip0_2_2084)">
<path d="M22.892 42.4788C25.311 42.4788 27.746 42.4628 30.165 42.4788C32.3276 42.5107 33.385 43.3724 33.401 45.016C33.401 46.6756 32.3116 47.6649 30.2451 47.6809C25.343 47.7128 20.425 47.6969 15.5229 47.6649C13.5685 47.6649 12.383 46.5479 12.4311 44.9203C12.4631 43.3883 13.5525 42.5266 15.603 42.4947C18.022 42.4628 20.457 42.4947 22.876 42.4947C22.876 42.4947 22.876 42.4947 22.876 42.4788H22.892Z" fill="url(#paint0_linear_2_2084)"/>
<path d="M32.2956 21.1596C34.234 21.1596 36.1724 21.1277 38.1108 21.1596C40.1613 21.2074 41.2987 22.1649 41.3628 23.7606C41.4268 25.3883 40.3535 26.4894 38.303 26.5372C34.1539 26.617 30.0047 26.617 25.8556 26.5372C23.9493 26.5053 22.908 25.3723 22.924 23.7766C22.94 22.2447 23.9172 21.2872 25.8236 21.2074C27.9702 21.1117 30.1329 21.1915 32.2796 21.1915V21.1596H32.2956Z" fill="url(#paint1_linear_2_2084)"/>
<path d="M15.4269 5.32979C14.2895 5.32979 13.1521 5.40958 12.0307 5.31384C10.605 5.18618 9.78795 4.34043 9.70785 2.90426C9.62775 1.50001 10.3967 0.478731 11.6943 0.382986C14.1613 0.191497 16.6444 0.191497 19.1115 0.351071C20.4571 0.430859 21.2261 1.81916 21.0498 3.23937C20.8736 4.62767 20.0406 5.32979 18.6629 5.37767C17.5896 5.40958 16.5002 5.37767 15.4269 5.37767C15.4269 5.36171 15.4269 5.34575 15.4269 5.32979Z" fill="url(#paint2_linear_2_2084)"/>
<path d="M29.8765 15.7181C28.9153 15.7181 27.9381 15.782 26.9769 15.7181C25.3749 15.5745 24.4297 14.5851 24.3817 13.149C24.3496 11.8564 25.2628 10.6117 26.7045 10.5C28.7871 10.3405 30.9017 10.3245 32.9843 10.4522C34.394 10.532 35.3072 11.7926 35.3072 13.1011C35.3072 14.5692 34.378 15.5745 32.7921 15.7181C31.8309 15.8139 30.8537 15.7341 29.8925 15.7341L29.8765 15.7181Z" fill="url(#paint3_linear_2_2084)"/>
<path d="M14.1611 15.7021C13.4082 15.7021 12.6552 15.766 11.9183 15.7021C10.4605 15.5585 9.41925 14.5213 9.38721 13.2607C9.33915 11.9043 10.4766 10.5319 11.9344 10.4362C13.4883 10.3404 15.0422 10.3564 16.5961 10.4841C18.15 10.6277 19.1112 11.7926 19.0471 13.1649C18.9831 14.5372 17.9418 15.5745 16.4359 15.7021C15.683 15.766 14.9301 15.7021 14.1931 15.7021H14.1611Z" fill="url(#paint4_linear_2_2084)"/>
<path d="M14.8338 32.0904C15.4266 32.0904 16.0193 32.0266 16.596 32.0904C17.9897 32.2659 18.8548 33.0159 18.9028 34.5C18.9509 35.9202 18.0858 37.101 16.7081 37.1968C15.3304 37.2925 13.9207 37.2765 12.543 37.117C11.1172 36.9414 10.4124 35.9521 10.4444 34.5319C10.4764 33.0797 11.3095 32.2819 12.7513 32.1542C13.4401 32.0904 14.145 32.1542 14.8338 32.1542C14.8338 32.1383 14.8338 32.1223 14.8338 32.0904Z" fill="url(#paint5_linear_2_2084)"/>
<path d="M2.56316 0.000250439C4.053 -0.0316645 5.17439 0.973655 5.22244 2.40982C5.2705 3.846 4.06902 5.18642 2.69132 5.20238C1.32964 5.23429 0 3.92578 0 2.53748C0 1.14919 1.10536 0.0321653 2.56316 0.000250439Z" fill="url(#paint6_linear_2_2084)"/>
<path d="M2.59501 42.5426C3.81251 42.5107 5.14215 43.8511 5.17419 45.1277C5.20623 46.5479 4.11689 47.6011 2.62705 47.617C1.16925 47.633 0.127965 46.6915 0.0638855 45.3192C-0.000193544 43.9309 1.24935 42.5585 2.61103 42.5266L2.59501 42.5426Z" fill="url(#paint7_linear_2_2084)"/>
<path d="M104.625 1.43612C104.513 1.9308 104.193 2.34569 103.776 2.63292L73.531 23.3936C73.531 23.3936 73.0344 23.0744 72.1693 22.4999C71.3043 21.9255 70.0708 21.1116 68.613 20.1382L62.7818 16.1329C62.7818 16.1329 62.7657 16.1329 62.7497 16.117H62.7337L53.8427 10.0053C55.2365 9.57441 55.4767 8.93612 55.5088 7.85101C55.5408 6.1276 54.2272 5.17016 51.6801 5.17016C49.9179 5.17016 48.1397 5.17016 46.3775 5.17016C42.6129 5.17016 38.8642 5.17016 35.0996 5.1542C33.9302 5.1542 32.7607 5.1542 31.5913 5.1542C30.1495 5.1542 28.6917 5.1542 27.2499 5.1542C26.4009 5.1542 25.5038 5.09037 24.7028 4.85101C23.3892 4.45207 22.8925 3.41484 22.9566 2.09037C22.9566 2.09037 22.9566 2.07441 22.9566 2.05846C23.0207 0.893562 24.062 0.0318604 25.2154 0.0318604H103.408C104.177 0.0318604 104.786 0.718031 104.641 1.45207L104.625 1.43612Z" fill="url(#paint8_linear_2_2084)"/>
<path d="M44.5831 10.4681C43.4778 10.6756 42.6127 11.4256 42.5967 12.5745C42.5967 13.5001 43.1253 14.6171 43.7821 15.3032C44.2147 15.766 45.288 15.766 46.073 15.766C48.556 15.7979 51.0391 15.7979 53.5222 15.8139C53.9387 15.8139 62.2369 15.782 62.7656 16.149L53.8265 10.0054C52.0804 10.1649 45.5603 10.3884 45.0157 10.4203C44.8715 10.4203 44.7113 10.4362 44.5831 10.4681Z" fill="url(#paint9_linear_2_2084)"/>
<path d="M73.7875 28.4202L73.7715 28.4043L73.8356 28.2766L73.8676 28.2926L73.7875 28.4202Z" fill="url(#paint10_linear_2_2084)"/>
<path d="M148.856 44.2819C148.856 45.3191 148.487 46.1968 147.75 46.8989C147.013 47.633 146.132 48 145.123 48H145.027C144.018 48 143.152 47.633 142.4 46.8989C141.663 46.1968 141.294 45.3351 141.294 44.2819V15.8936C141.294 13.5798 140.477 11.6011 138.859 9.95745C137.209 8.31383 135.223 7.5 132.868 7.5C130.513 7.5 128.558 8.31383 126.908 9.95745C125.29 11.6011 124.473 13.5798 124.473 15.8936V44.2819C124.473 45.3191 124.105 46.1968 123.368 46.8989C122.631 47.633 121.75 48 120.741 48H120.645C119.635 48 118.77 47.633 118.017 46.8989C117.281 46.1968 116.912 45.3351 116.912 44.2819V15.8936C116.912 11.5053 118.466 7.75532 121.606 4.64362C124.73 1.54787 128.478 0 132.868 0C137.257 0 141.038 1.54787 144.162 4.64362C147.286 7.75532 148.856 11.5053 148.856 15.8936V44.2819Z" fill="url(#paint11_linear_2_2084)"/>
<path d="M172.18 12.5905C177.066 12.5905 181.263 14.3139 184.739 17.7766C188.216 21.2394 189.946 25.4043 189.946 30.2873C189.946 35.1702 188.2 39.3351 184.739 42.7979C181.263 46.2607 177.082 47.9841 172.18 47.9841C167.278 47.9841 163.097 46.2607 159.62 42.7979C156.144 39.3351 154.414 35.1702 154.414 30.2873C154.414 25.4043 156.144 21.2394 159.62 17.7766C163.097 14.3139 167.278 12.5905 172.18 12.5905ZM172.18 20.1862C169.344 20.1862 166.925 21.1756 164.923 23.1702C162.953 25.1649 161.959 27.5585 161.959 30.399C161.959 33.2394 162.953 35.6011 164.923 37.5958C166.909 39.5905 169.328 40.5798 172.18 40.5798C175.032 40.5798 177.402 39.5905 179.405 37.5958C181.391 35.6011 182.401 33.2075 182.401 30.399C182.401 27.5905 181.407 25.1649 179.405 23.1702C177.402 21.1756 174.999 20.1862 172.18 20.1862Z" fill="url(#paint12_linear_2_2084)"/>
<path d="M199.014 0C200.023 0 200.888 0.367021 201.641 1.06915C202.378 1.80319 202.746 2.68085 202.746 3.71809V12.5904H207.376C208.385 12.5904 209.251 12.9574 210.003 13.6915C210.756 14.4255 211.109 15.3032 211.109 16.3404V16.4043C211.109 17.4415 210.74 18.3191 210.003 19.0213C209.267 19.7553 208.385 20.1223 207.376 20.1223H202.746V38.3457C202.746 38.9362 202.955 39.4468 203.371 39.8457C203.788 40.2606 204.3 40.4681 204.909 40.4681H207.376C208.385 40.4681 209.251 40.8351 210.003 41.5691C210.756 42.3032 211.109 43.1809 211.109 44.2181V44.2819C211.109 45.3191 210.74 46.1968 210.003 46.8989C209.267 47.633 208.385 48 207.376 48H204.909C202.234 48 199.943 47.0585 198.037 45.1755C196.146 43.2766 195.201 40.9947 195.201 38.3617V3.71809C195.201 2.69681 195.57 1.81915 196.307 1.06915C197.043 0.351064 197.925 0 198.934 0H199.03L199.014 0Z" fill="url(#paint13_linear_2_2084)"/>
<path d="M248.403 22.9148C248.643 23.4255 248.771 23.9521 248.771 24.4787C248.771 24.9095 248.691 25.3404 248.531 25.7712C248.178 26.7287 247.522 27.4308 246.56 27.8616C243.677 29.1542 239.896 30.8457 235.202 32.968C229.387 35.585 225.975 37.1329 224.966 37.6116C226.52 39.5744 228.971 40.5638 232.271 40.5638C234.466 40.5638 236.468 39.9255 238.262 38.6329C240.008 37.3563 241.226 35.7287 241.931 33.718C242.523 32.0425 243.725 31.1967 245.503 31.1967C246.785 31.1967 247.794 31.7233 248.563 32.7925C249.027 33.4467 249.268 34.1329 249.268 34.851C249.268 35.2819 249.188 35.7287 249.027 36.1755C247.81 39.6861 245.679 42.5106 242.636 44.6489C239.544 46.8829 236.1 47.9999 232.271 47.9999C227.369 47.9999 223.188 46.2765 219.711 42.8138C216.235 39.351 214.505 35.1861 214.505 30.3031C214.505 25.4202 216.235 21.2553 219.711 17.7925C223.188 14.3297 227.369 12.6063 232.271 12.6063C235.811 12.6063 239.031 13.5638 241.963 15.4946C244.862 17.3776 247.009 19.851 248.403 22.9308V22.9148ZM232.271 20.1861C229.435 20.1861 227.016 21.1755 225.014 23.1702C223.043 25.1648 222.05 27.5584 222.05 30.3989V30.6063L239.287 22.8989C237.766 21.0957 235.427 20.2021 232.255 20.2021L232.271 20.1861Z" fill="url(#paint14_linear_2_2084)"/>
<path d="M264.391 20.1223C263.478 20.1223 262.725 20.4255 262.116 21.0479C261.491 21.6862 261.187 22.4362 261.187 23.3138C261.187 24.5425 261.779 25.4681 262.981 26.0745C263.397 26.2979 265.112 26.8085 268.139 27.6064C270.59 28.3085 272.401 29.2181 273.602 30.3351C275.316 31.9468 276.165 34.2606 276.165 37.2447C276.165 40.2287 275.124 42.7181 273.025 44.8404C270.911 46.9308 268.364 47.9681 265.4 47.9681H257.342C256.333 47.9681 255.468 47.6011 254.715 46.867C253.978 46.1649 253.609 45.3032 253.609 44.25V44.1862C253.609 43.1649 253.978 42.2872 254.715 41.5372C255.452 40.7872 256.333 40.4362 257.342 40.4362H265.704C266.601 40.4362 267.37 40.133 267.979 39.5106C268.588 38.8883 268.908 38.1383 268.908 37.2447C268.908 36.1117 268.316 35.266 267.146 34.6915C266.842 34.5479 265.112 34.0372 261.972 33.1596C259.521 32.4415 257.71 31.5 256.509 30.3351C254.795 28.6755 253.946 26.3298 253.946 23.2979C253.946 20.266 254.987 17.8245 257.086 15.734C259.2 13.6277 261.747 12.5745 264.711 12.5745H270.382C271.407 12.5745 272.288 12.9415 273.041 13.6755C273.794 14.4096 274.147 15.2872 274.147 16.3245V16.3883C274.147 17.4255 273.778 18.3032 273.041 19.0053C272.304 19.7394 271.423 20.1064 270.382 20.1064H264.391V20.1223Z" fill="url(#paint15_linear_2_2084)"/>
<path d="M301.364 31.6277C303.206 33.4628 304.135 35.6809 304.135 38.266C304.135 40.8511 303.206 43.0692 301.364 44.9043C299.506 46.7394 297.279 47.6649 294.684 47.6649C292.088 47.6649 289.862 46.7394 288.019 44.9043C286.177 43.0692 285.248 40.8511 285.248 38.266C285.248 35.6809 286.177 33.4628 288.019 31.6277C289.862 29.7926 292.088 28.8671 294.684 28.8671C297.279 28.8671 299.506 29.7926 301.364 31.6277ZM290.102 33.7022C288.836 34.9628 288.212 36.4788 288.212 38.282C288.212 40.0852 288.836 41.6011 290.102 42.8617C291.368 44.1064 292.889 44.7447 294.684 44.7447C296.478 44.7447 298.016 44.1224 299.281 42.8617C300.547 41.6011 301.172 40.0852 301.172 38.282C301.172 36.4788 300.531 34.9628 299.281 33.7022C298.016 32.4415 296.478 31.8192 294.684 31.8192C292.889 31.8192 291.368 32.4415 290.102 33.7022Z" fill="url(#paint16_linear_2_2084)"/>
<path d="M309.262 46.2129C309.262 46.6278 309.118 46.9629 308.83 47.2341C308.541 47.5214 308.189 47.665 307.804 47.665H307.772C307.372 47.665 307.035 47.5214 306.747 47.2341C306.459 46.9629 306.314 46.6278 306.314 46.2129V39.6224C306.314 38.0107 306.891 36.6384 308.029 35.5054C309.166 34.3724 310.544 33.798 312.162 33.798C313.78 33.798 315.141 34.3724 316.279 35.5054C317.416 36.6384 317.993 38.0107 317.993 39.6224V46.2129C317.993 46.6278 317.849 46.9629 317.56 47.2341C317.288 47.5214 316.952 47.665 316.535 47.665H316.503C316.103 47.665 315.75 47.5214 315.462 47.2341C315.173 46.9629 315.029 46.6278 315.029 46.2129V39.6224C315.029 38.8246 314.757 38.1544 314.196 37.5958C313.635 37.0373 312.947 36.7501 312.162 36.7501C311.377 36.7501 310.672 37.0373 310.111 37.5958C309.55 38.1544 309.278 38.8405 309.278 39.6224V46.2129H309.262Z" fill="url(#paint17_linear_2_2084)"/>
<path d="M322.381 28.8671C322.782 28.8671 323.118 29.0107 323.407 29.282C323.695 29.5692 323.839 29.9203 323.839 30.3192V46.2128C323.839 46.6277 323.695 46.9628 323.407 47.2341C323.118 47.5213 322.766 47.6649 322.381 47.6649H322.349C321.949 47.6649 321.612 47.5213 321.324 47.2341C321.036 46.9628 320.892 46.6277 320.892 46.2128V30.3192C320.892 29.9203 321.036 29.5692 321.324 29.282C321.612 28.9947 321.949 28.8671 322.349 28.8671H322.381Z" fill="url(#paint18_linear_2_2084)"/>
<path d="M327.297 32.2341C326.832 32.2341 326.432 32.0745 326.095 31.7394C325.759 31.4043 325.599 31.0213 325.599 30.5426C325.599 30.0639 325.759 29.6969 326.095 29.3617C326.432 29.0266 326.816 28.8671 327.297 28.8671C327.777 28.8671 328.146 29.0266 328.482 29.3617C328.819 29.6809 328.995 30.0798 328.995 30.5426C328.995 31.0054 328.819 31.4203 328.482 31.7394C328.146 32.0745 327.761 32.2341 327.297 32.2341ZM327.297 33.7979C327.713 33.7979 328.05 33.9415 328.322 34.2288C328.61 34.516 328.755 34.8671 328.755 35.266V46.2128C328.755 46.6277 328.61 46.9628 328.322 47.2341C328.05 47.5213 327.713 47.6649 327.297 47.6649H327.265C326.864 47.6649 326.512 47.5213 326.223 47.2341C325.935 46.9628 325.791 46.6277 325.791 46.2128V35.266C325.791 34.8671 325.935 34.516 326.223 34.2288C326.512 33.9415 326.864 33.7979 327.265 33.7979H327.297Z" fill="url(#paint19_linear_2_2084)"/>
<path d="M334.602 46.2129C334.602 46.6278 334.458 46.9629 334.169 47.2341C333.881 47.5214 333.529 47.665 333.144 47.665H333.112C332.712 47.665 332.375 47.5214 332.087 47.2341C331.798 46.9629 331.654 46.6278 331.654 46.2129V39.6224C331.654 38.0107 332.231 36.6384 333.368 35.5054C334.506 34.3724 335.884 33.798 337.502 33.798C339.119 33.798 340.481 34.3724 341.619 35.5054C342.756 36.6384 343.333 38.0107 343.333 39.6224V46.2129C343.333 46.6278 343.189 46.9629 342.9 47.2341C342.628 47.5214 342.291 47.665 341.875 47.665H341.843C341.442 47.665 341.09 47.5214 340.802 47.2341C340.513 46.9629 340.369 46.6278 340.369 46.2129V39.6224C340.369 38.8246 340.097 38.1544 339.536 37.5958C338.975 37.0373 338.286 36.7501 337.502 36.7501C336.717 36.7501 336.012 37.0373 335.451 37.5958C334.89 38.1544 334.618 38.8405 334.618 39.6224V46.2129H334.602Z" fill="url(#paint20_linear_2_2084)"/>
<path d="M358.664 37.8511C358.76 38.0586 358.808 38.2501 358.808 38.4575C358.808 38.633 358.776 38.7926 358.712 38.9682C358.568 39.3511 358.311 39.6224 357.943 39.782C356.822 40.2926 355.332 40.9469 353.489 41.7767C351.215 42.7979 349.869 43.4043 349.484 43.5958C350.093 44.3618 351.054 44.7447 352.352 44.7447C353.217 44.7447 354.002 44.4894 354.691 43.9788C355.38 43.4841 355.86 42.8458 356.133 42.0479C356.373 41.3937 356.838 41.0586 357.526 41.0586C358.023 41.0586 358.423 41.266 358.728 41.6809C358.92 41.9362 359 42.2075 359 42.4947C359 42.6703 358.968 42.8299 358.904 43.0054C358.423 44.3777 357.59 45.4788 356.405 46.3245C355.204 47.2022 353.842 47.633 352.352 47.633C350.43 47.633 348.796 46.9628 347.434 45.6065C346.072 44.2501 345.399 42.6224 345.399 40.7075C345.399 38.7926 346.072 37.165 347.434 35.8086C348.796 34.4522 350.43 33.782 352.352 33.782C353.73 33.782 354.995 34.165 356.149 34.915C357.286 35.649 358.119 36.6224 358.68 37.8352L358.664 37.8511ZM352.352 36.782C351.247 36.782 350.285 37.165 349.516 37.9469C348.748 38.7288 348.363 39.6703 348.363 40.7713V40.8511L355.123 37.8352C354.531 37.133 353.602 36.782 352.368 36.782H352.352Z" fill="url(#paint21_linear_2_2084)"/>
<path d="M111.161 48C111.305 39.3511 111.113 14.1064 111.065 6.57452C111.065 5.63303 110.024 5.09048 109.223 5.58516L73.8189 28.3564H73.7869L60.4104 21.1596C60.122 21.0001 59.7856 20.9203 59.4652 20.9522C59.3851 20.9522 59.289 20.9522 59.1928 20.9522C56.3413 21.032 53.4738 21.0001 50.6223 21.0479C48.4436 21.0798 47.2101 22.1011 47.146 23.8405C47.0979 25.532 48.2834 26.5213 50.5902 26.6171C51.5514 26.6649 52.5286 26.6171 53.5058 26.6809C55.2199 26.8086 56.2452 27.8298 56.2132 29.2979C56.1811 30.6703 55.1559 31.6915 53.5859 31.8352C52.833 31.899 52.0801 31.899 51.3271 31.899C44.6469 31.899 37.9506 31.899 31.2704 31.9309C30.3573 31.9309 29.4281 31.9309 28.515 31.9309C27.6499 31.9309 26.7688 31.9309 25.9518 32.1543C24.6542 32.4735 23.9173 33.4309 23.9814 34.7554C24.0455 35.9841 24.8144 36.8777 26.064 37.0852C27.1213 37.2607 28.2106 37.2926 29.2839 37.2926C29.9247 37.2926 30.5655 37.2926 31.2063 37.2926C36.605 37.3086 42.0036 37.2926 47.4023 37.3564C49.2606 37.3724 50.3499 38.3777 50.43 39.8458C50.5101 41.3298 49.3567 42.4947 47.5144 42.6703C46.3931 42.782 45.2396 42.6703 44.1182 42.782C42.7245 42.9256 41.8114 43.6756 41.7153 45.1437C41.6192 46.5001 42.5483 47.649 43.926 47.9043C44.1022 47.9362 44.2784 47.9362 44.4547 47.9522H111.129L111.161 48Z" fill="url(#paint22_linear_2_2084)"/>
</g>
<defs>
<linearGradient id="paint0_linear_2_2084" x1="22.9153" y1="42.4717" x2="22.9153" y2="47.6983" gradientUnits="userSpaceOnUse">
<stop stop-color="#E4E4FF"/>
<stop offset="1" stop-color="#323759"/>
</linearGradient>
<linearGradient id="paint1_linear_2_2084" x1="32.1447" y1="21.1454" x2="32.1447" y2="26.5971" gradientUnits="userSpaceOnUse">
<stop stop-color="#E4E4FF"/>
<stop offset="1" stop-color="#323759"/>
</linearGradient>
<linearGradient id="paint2_linear_2_2084" x1="15.3885" y1="0.235107" x2="15.3885" y2="5.39185" gradientUnits="userSpaceOnUse">
<stop stop-color="#E4E4FF"/>
<stop offset="1" stop-color="#323759"/>
</linearGradient>
<linearGradient id="paint3_linear_2_2084" x1="29.844" y1="10.3671" x2="29.844" y2="15.7653" gradientUnits="userSpaceOnUse">
<stop stop-color="#E4E4FF"/>
<stop offset="1" stop-color="#323759"/>
</linearGradient>
<linearGradient id="paint4_linear_2_2084" x1="14.2179" y1="10.3746" x2="14.2179" y2="15.7305" gradientUnits="userSpaceOnUse">
<stop stop-color="#E4E4FF"/>
<stop offset="1" stop-color="#323759"/>
</linearGradient>
<linearGradient id="paint5_linear_2_2084" x1="14.6741" y1="32.062" x2="14.6741" y2="37.256" gradientUnits="userSpaceOnUse">
<stop stop-color="#E4E4FF"/>
<stop offset="1" stop-color="#323759"/>
</linearGradient>
<linearGradient id="paint6_linear_2_2084" x1="2.61192" y1="-0.000488281" x2="2.61192" y2="5.20295" gradientUnits="userSpaceOnUse">
<stop stop-color="#E4E4FF"/>
<stop offset="1" stop-color="#323759"/>
</linearGradient>
<linearGradient id="paint7_linear_2_2084" x1="2.6182" y1="42.5266" x2="2.6182" y2="47.6172" gradientUnits="userSpaceOnUse">
<stop stop-color="#E4E4FF"/>
<stop offset="1" stop-color="#323759"/>
</linearGradient>
<linearGradient id="paint8_linear_2_2084" x1="63.8069" y1="0.0318604" x2="63.8069" y2="23.3936" gradientUnits="userSpaceOnUse">
<stop stop-color="#E4E4FF"/>
<stop offset="1" stop-color="#323759"/>
</linearGradient>
<linearGradient id="paint9_linear_2_2084" x1="52.6811" y1="10.0054" x2="52.6811" y2="16.149" gradientUnits="userSpaceOnUse">
<stop stop-color="#E4E4FF"/>
<stop offset="1" stop-color="#323759"/>
</linearGradient>
<linearGradient id="paint10_linear_2_2084" x1="73.8195" y1="28.2766" x2="73.8195" y2="28.4202" gradientUnits="userSpaceOnUse">
<stop stop-color="#E4E4FF"/>
<stop offset="1" stop-color="#323759"/>
</linearGradient>
<linearGradient id="paint11_linear_2_2084" x1="132.884" y1="0" x2="132.884" y2="48" gradientUnits="userSpaceOnUse">
<stop stop-color="#E4E4FF"/>
<stop offset="1" stop-color="#323759"/>
</linearGradient>
<linearGradient id="paint12_linear_2_2084" x1="172.18" y1="12.5905" x2="172.18" y2="47.9841" gradientUnits="userSpaceOnUse">
<stop stop-color="#E4E4FF"/>
<stop offset="1" stop-color="#323759"/>
</linearGradient>
<linearGradient id="paint13_linear_2_2084" x1="203.155" y1="0" x2="203.155" y2="48" gradientUnits="userSpaceOnUse">
<stop stop-color="#E4E4FF"/>
<stop offset="1" stop-color="#323759"/>
</linearGradient>
<linearGradient id="paint14_linear_2_2084" x1="231.886" y1="12.6063" x2="231.886" y2="47.9999" gradientUnits="userSpaceOnUse">
<stop stop-color="#E4E4FF"/>
<stop offset="1" stop-color="#323759"/>
</linearGradient>
<linearGradient id="paint15_linear_2_2084" x1="264.887" y1="12.5745" x2="264.887" y2="47.9681" gradientUnits="userSpaceOnUse">
<stop stop-color="#E4E4FF"/>
<stop offset="1" stop-color="#323759"/>
</linearGradient>
<linearGradient id="paint16_linear_2_2084" x1="294.692" y1="28.8671" x2="294.692" y2="47.6649" gradientUnits="userSpaceOnUse">
<stop stop-color="#E4E4FF"/>
<stop offset="1" stop-color="#323759"/>
</linearGradient>
<linearGradient id="paint17_linear_2_2084" x1="312.154" y1="33.798" x2="312.154" y2="47.665" gradientUnits="userSpaceOnUse">
<stop stop-color="#E4E4FF"/>
<stop offset="1" stop-color="#323759"/>
</linearGradient>
<linearGradient id="paint18_linear_2_2084" x1="322.365" y1="28.8671" x2="322.365" y2="47.6649" gradientUnits="userSpaceOnUse">
<stop stop-color="#E4E4FF"/>
<stop offset="1" stop-color="#323759"/>
</linearGradient>
<linearGradient id="paint19_linear_2_2084" x1="327.297" y1="28.8671" x2="327.297" y2="47.6649" gradientUnits="userSpaceOnUse">
<stop stop-color="#E4E4FF"/>
<stop offset="1" stop-color="#323759"/>
</linearGradient>
<linearGradient id="paint20_linear_2_2084" x1="337.493" y1="33.798" x2="337.493" y2="47.665" gradientUnits="userSpaceOnUse">
<stop stop-color="#E4E4FF"/>
<stop offset="1" stop-color="#323759"/>
</linearGradient>
<linearGradient id="paint21_linear_2_2084" x1="352.2" y1="33.782" x2="352.2" y2="47.633" gradientUnits="userSpaceOnUse">
<stop stop-color="#E4E4FF"/>
<stop offset="1" stop-color="#323759"/>
</linearGradient>
<linearGradient id="paint22_linear_2_2084" x1="67.5956" y1="5.39844" x2="67.5956" y2="48" gradientUnits="userSpaceOnUse">
<stop stop-color="#E4E4FF"/>
<stop offset="1" stop-color="#323759"/>
</linearGradient>
<clipPath id="clip0_2_2084">
<rect width="376" height="48" fill="white"/>
</clipPath>
</defs>
</svg>
